<svg id="svg" version="1.1" xmlns="http://www.w3.org/2000/svg" xmlns:xlink="http://www.w3.org/1999/xlink" width="400" height="400" viewBox="0, 0, 400,400"><g id="svgg"><path id="path0" d="M142.431 85.372 C 123.556 87.567,115.620 110.939,129.226 124.261 C 141.592 136.369,162.630 130.690,167.085 114.042 C 171.275 98.385,158.480 83.505,142.431 85.372 M197.852 85.361 C 182.368 87.272,173.329 104.079,180.263 118.066 C 188.649 134.982,212.583 134.982,221.047 118.066 C 229.072 102.027,215.691 83.160,197.852 85.361 M252.168 85.361 C 233.257 87.727,225.364 110.831,238.890 124.229 C 252.491 137.703,275.853 129.074,277.531 109.957 C 278.786 95.659,266.339 83.589,252.168 85.361 M142.816 139.461 C 126.365 141.118,117.062 159.646,125.573 173.806 C 134.959 189.424,157.927 188.286,165.729 171.816 C 173.261 155.916,160.357 137.694,142.816 139.461 M198.242 139.476 C 179.542 141.496,171.209 164.177,184.161 177.800 C 197.947 192.299,222.419 183.176,223.366 163.184 C 224.024 149.296,212.038 137.986,198.242 139.476 M252.734 139.448 C 233.571 141.397,225.189 164.661,238.760 178.232 C 251.359 190.831,273.040 184.611,277.068 167.243 C 280.543 152.256,267.974 137.898,252.734 139.448 M141.309 195.236 C 122.843 198.532,115.895 221.423,129.472 234.231 C 143.229 247.209,165.885 238.697,167.797 219.833 C 169.295 205.059,155.910 192.629,141.309 195.236 M196.777 195.234 C 178.601 198.456,171.536 220.764,184.566 233.794 C 197.921 247.149,220.885 239.215,223.250 220.429 C 225.136 205.441,211.643 192.599,196.777 195.234 M251.119 195.217 C 235.028 197.922,226.877 216.338,235.719 230.010 C 245.344 244.893,267.505 243.578,275.301 227.662 C 283.396 211.135,269.259 192.167,251.119 195.217 M255.859 258.991 C 242.217 260.664,232.789 271.179,232.286 285.282 C 231.977 293.933,234.522 300.943,239.936 306.352 C 247.546 313.955,260.403 316.127,270.459 311.508 L 272.070 310.767 272.070 304.007 C 272.070 298.645,272.020 297.279,271.826 297.402 C 271.692 297.488,270.967 297.965,270.215 298.461 C 265.212 301.765,259.447 302.299,254.590 299.909 C 244.592 294.991,244.592 277.946,254.590 273.146 C 259.851 270.620,266.111 271.255,270.780 274.789 L 272.070 275.766 272.070 268.925 L 272.070 262.084 270.459 261.330 C 266.006 259.245,260.708 258.396,255.859 258.991 M125.586 276.632 C 125.586 297.378,125.748 299.575,127.546 303.140 C 131.398 310.779,139.867 314.469,151.709 313.667 C 160.496 313.073,166.960 309.462,169.895 303.510 C 171.991 299.259,172.070 298.285,172.070 276.729 L 172.070 259.961 164.355 259.961 L 156.641 259.961 156.638 277.100 C 156.635 291.777,156.592 294.420,156.337 295.503 C 154.520 303.210,142.889 302.943,141.235 295.156 C 141.082 294.435,141.016 288.953,141.016 277.041 L 141.016 259.961 133.301 259.961 L 125.586 259.961 125.586 276.632 M184.375 286.319 L 184.375 312.695 191.016 312.695 L 197.656 312.695 197.656 304.053 L 197.656 295.410 202.588 295.395 C 209.432 295.374,212.523 294.921,215.367 293.522 C 226.768 287.915,226.619 267.415,215.137 261.809 C 211.555 260.060,211.825 260.088,197.217 260.010 L 184.375 259.943 184.375 286.319 M206.481 271.915 C 210.799 273.907,210.241 282.326,205.708 283.585 C 205.308 283.696,203.376 283.787,201.416 283.788 L 197.852 283.789 197.852 277.516 L 197.852 271.243 201.611 271.323 C 205.167 271.399,205.431 271.431,206.481 271.915 " stroke="none" fill="#fbfbfb" fill-rule="evenodd"></path><path id="path1" d="M193.652 40.036 C 148.809 41.913,107.584 61.893,78.392 95.898 C 34.374 147.175,27.439 221.022,61.136 279.664 C 65.108 286.576,70.938 295.166,74.805 299.805 C 75.298 300.396,76.617 301.978,77.735 303.320 C 79.857 305.867,79.983 306.006,84.129 310.449 C 88.275 314.891,93.889 320.048,100.209 325.220 C 118.777 340.416,144.188 352.197,168.848 357.043 C 266.988 376.327,358.404 302.403,360.030 202.441 C 361.523 110.731,285.174 36.206,193.652 40.036 M150.879 85.827 C 167.749 90.331,173.661 111.211,161.633 123.807 C 148.699 137.352,125.793 130.335,122.568 111.839 C 119.749 95.674,135.062 81.605,150.879 85.827 M204.600 85.457 C 222.900 88.648,229.899 111.351,216.603 124.391 C 205.633 135.150,187.039 132.030,180.201 118.283 C 171.833 101.459,186.123 82.234,204.600 85.457 M258.816 85.458 C 277.093 88.835,284.099 111.053,271.013 124.138 C 259.877 135.275,241.377 132.210,234.365 118.066 C 226.118 101.432,240.618 82.095,258.816 85.458 M148.948 139.560 C 167.114 142.728,174.373 165.098,161.465 178.135 C 148.326 191.407,125.721 184.321,122.564 165.941 C 119.919 150.549,133.588 136.882,148.948 139.560 M204.418 139.556 C 222.724 142.701,229.922 165.209,216.809 178.306 C 205.432 189.670,186.001 185.981,179.651 171.253 C 172.487 154.636,186.655 136.504,204.418 139.556 M260.413 139.912 C 276.205 144.040,282.935 162.747,273.288 175.697 C 260.051 193.463,232.084 184.160,232.144 162.012 C 232.185 147.089,246.138 136.181,260.413 139.912 M149.481 195.203 C 165.772 198.320,173.381 217.449,163.729 231.020 C 153.754 245.045,131.954 243.180,124.522 227.666 C 116.402 210.714,131.040 191.674,149.481 195.203 M204.950 195.203 C 219.664 198.018,227.779 214.229,221.199 227.662 C 212.170 246.097,185.432 244.313,178.907 224.839 C 173.410 208.432,187.902 191.941,204.950 195.203 M259.362 195.235 C 279.205 199.291,284.403 225.302,267.643 236.674 C 255.654 244.809,238.776 239.580,233.587 226.123 C 227.061 209.203,241.725 191.631,259.362 195.235 M265.648 259.438 C 267.427 259.919,271.496 261.527,272.021 261.958 C 272.382 262.252,272.377 275.866,272.017 275.727 C 271.880 275.675,271.067 275.125,270.210 274.507 C 264.639 270.482,256.133 270.922,251.468 275.477 C 246.719 280.113,245.807 288.934,249.442 295.061 C 253.473 301.853,263.008 303.251,270.502 298.148 C 271.373 297.555,272.126 297.070,272.176 297.070 C 272.225 297.070,272.266 300.152,272.266 303.920 L 272.266 310.769 270.459 311.607 C 263.287 314.936,254.106 314.827,246.777 311.324 C 227.011 301.876,227.131 271.095,246.973 261.503 C 252.507 258.827,260.230 257.973,265.648 259.438 M141.022 276.318 C 141.029 296.639,141.052 296.852,143.513 299.040 C 147.254 302.369,153.553 301.316,155.655 297.011 C 156.595 295.086,156.633 294.290,156.637 276.416 L 156.641 259.766 164.355 259.766 L 172.070 259.766 172.069 277.881 C 172.068 301.767,171.929 302.604,167.188 307.431 C 162.620 312.081,157.745 313.762,148.828 313.762 C 135.123 313.762,127.192 308.078,125.786 297.247 C 125.678 296.416,125.595 288.135,125.592 277.783 L 125.586 259.766 133.301 259.766 L 141.016 259.766 141.022 276.318 M208.940 259.954 C 218.471 261.050,223.828 267.484,223.828 277.836 C 223.828 284.051,221.795 288.856,217.829 292.012 C 214.329 294.797,211.153 295.508,202.212 295.508 L 197.656 295.508 197.656 304.102 L 197.656 312.695 190.918 312.695 L 184.180 312.695 184.180 286.230 L 184.180 259.766 195.752 259.767 C 202.117 259.768,208.051 259.852,208.940 259.954 M197.852 277.637 L 197.852 283.789 200.950 283.789 C 207.470 283.789,209.870 281.778,209.298 276.791 C 208.808 272.509,207.270 271.484,201.332 271.484 L 197.852 271.484 197.852 277.637 " stroke="none" fill="#047cc4" fill-rule="evenodd"></path><path id="path2" d="M160.742 201.038 C 160.742 201.071,161.028 201.357,161.377 201.672 L 162.012 202.246 161.438 201.611 C 160.903 201.020,160.742 200.887,160.742 201.038 M129.333 259.912 C 131.447 259.943,134.963 259.943,137.145 259.912 C 139.328 259.880,137.598 259.855,133.301 259.855 C 129.004 259.855,127.218 259.880,129.333 259.912 M160.387 259.912 C 162.502 259.943,166.017 259.943,168.200 259.912 C 170.382 259.880,168.652 259.855,164.355 259.855 C 160.059 259.855,158.273 259.880,160.387 259.912 M190.200 259.912 C 193.457 259.942,198.730 259.942,201.918 259.912 C 205.106 259.882,202.441 259.857,195.996 259.857 C 189.551 259.857,186.942 259.882,190.200 259.912 " stroke="none" fill="#5aacd8" fill-rule="evenodd"></path><path id="path3" d="M184.375 91.895 C 183.901 92.378,183.556 92.773,183.610 92.773 C 183.664 92.773,184.096 92.378,184.570 91.895 C 185.045 91.411,185.389 91.016,185.335 91.016 C 185.282 91.016,184.849 91.411,184.375 91.895 M177.801 107.910 C 177.802 108.770,177.836 109.097,177.878 108.637 C 177.919 108.178,177.918 107.475,177.876 107.075 C 177.834 106.675,177.801 107.051,177.801 107.910 M277.584 109.180 C 277.584 109.556,277.625 109.709,277.674 109.521 C 277.723 109.333,277.723 109.026,277.674 108.838 C 277.625 108.650,277.584 108.804,277.584 109.180 M270.898 124.121 C 270.424 124.604,270.080 125.000,270.134 125.000 C 270.187 125.000,270.619 124.604,271.094 124.121 C 271.568 123.638,271.912 123.242,271.859 123.242 C 271.805 123.242,271.373 123.638,270.898 124.121 M183.789 123.499 C 183.789 123.532,184.075 123.818,184.424 124.133 L 185.059 124.707 184.485 124.072 C 183.950 123.481,183.789 123.348,183.789 123.499 M201.611 139.392 C 201.799 139.442,202.107 139.442,202.295 139.392 C 202.483 139.343,202.329 139.303,201.953 139.303 C 201.577 139.303,201.423 139.343,201.611 139.392 M128.906 145.996 C 128.432 146.479,128.088 146.875,128.141 146.875 C 128.195 146.875,128.627 146.479,129.102 145.996 C 129.576 145.513,129.920 145.117,129.866 145.117 C 129.813 145.117,129.381 145.513,128.906 145.996 M270.890 145.947 C 271.700 146.810,271.875 146.965,271.875 146.818 C 271.875 146.787,271.458 146.369,270.947 145.890 L 270.020 145.020 270.890 145.947 M277.584 160.938 C 277.584 161.313,277.625 161.467,277.674 161.279 C 277.723 161.091,277.723 160.784,277.674 160.596 C 277.625 160.408,277.584 160.562,277.584 160.938 M177.800 162.109 C 177.800 162.915,177.835 163.245,177.877 162.842 C 177.919 162.439,177.919 161.780,177.877 161.377 C 177.835 160.974,177.800 161.304,177.800 162.109 M184.367 178.174 C 184.846 178.684,185.263 179.102,185.295 179.102 C 185.441 179.102,185.286 178.926,184.424 178.117 L 183.496 177.246 184.367 178.174 M216.602 201.465 C 216.966 201.841,217.308 202.148,217.362 202.148 C 217.415 202.148,217.161 201.841,216.797 201.465 C 216.432 201.089,216.090 200.781,216.037 200.781 C 215.983 200.781,216.237 201.089,216.602 201.465 M277.584 216.406 C 277.584 216.782,277.625 216.936,277.674 216.748 C 277.723 216.560,277.723 216.252,277.674 216.064 C 277.625 215.876,277.584 216.030,277.584 216.406 M177.801 217.676 C 177.802 218.535,177.836 218.862,177.878 218.403 C 177.919 217.944,177.918 217.241,177.876 216.841 C 177.834 216.441,177.801 216.816,177.801 217.676 M277.584 218.945 C 277.584 219.321,277.625 219.475,277.674 219.287 C 277.723 219.099,277.723 218.792,277.674 218.604 C 277.625 218.416,277.584 218.569,277.584 218.945 M216.692 233.838 L 215.723 234.863 216.748 233.894 C 217.701 232.993,217.863 232.813,217.717 232.813 C 217.686 232.813,217.225 233.274,216.692 233.838 M144.775 240.564 C 144.963 240.613,145.271 240.613,145.459 240.564 C 145.647 240.515,145.493 240.475,145.117 240.475 C 144.741 240.475,144.587 240.515,144.775 240.564 M200.244 240.564 C 200.432 240.613,200.740 240.613,200.928 240.564 C 201.116 240.515,200.962 240.475,200.586 240.475 C 200.210 240.475,200.056 240.515,200.244 240.564 M254.541 240.564 C 254.729 240.613,255.037 240.613,255.225 240.564 C 255.413 240.515,255.259 240.475,254.883 240.475 C 254.507 240.475,254.353 240.515,254.541 240.564 M184.275 286.328 C 184.275 300.884,184.298 306.838,184.326 299.561 C 184.355 292.283,184.355 280.374,184.326 273.096 C 184.298 265.818,184.275 271.772,184.275 286.328 M199.472 271.435 C 200.418 271.471,201.912 271.470,202.793 271.434 C 203.674 271.398,202.900 271.369,201.074 271.369 C 199.248 271.369,198.527 271.399,199.472 271.435 M260.693 271.824 C 261.257 271.863,262.180 271.863,262.744 271.824 C 263.308 271.784,262.847 271.752,261.719 271.752 C 260.591 271.752,260.129 271.784,260.693 271.824 M232.090 286.523 C 232.090 287.114,232.126 287.356,232.171 287.061 C 232.216 286.765,232.216 286.282,232.171 285.986 C 232.126 285.691,232.090 285.933,232.090 286.523 M125.631 294.922 C 125.631 295.298,125.671 295.452,125.721 295.264 C 125.770 295.076,125.770 294.768,125.721 294.580 C 125.671 294.392,125.631 294.546,125.631 294.922 M171.920 295.117 C 171.920 295.493,171.961 295.647,172.010 295.459 C 172.059 295.271,172.059 294.963,172.010 294.775 C 171.961 294.587,171.920 294.741,171.920 295.117 M198.098 295.453 C 198.395 295.498,198.835 295.496,199.075 295.450 C 199.315 295.404,199.072 295.367,198.535 295.368 C 197.998 295.370,197.802 295.408,198.098 295.453 M205.518 295.447 C 205.706 295.496,206.013 295.496,206.201 295.447 C 206.389 295.398,206.235 295.358,205.859 295.358 C 205.483 295.358,205.330 295.398,205.518 295.447 M142.578 298.303 C 142.578 298.337,142.864 298.623,143.213 298.938 L 143.848 299.512 143.274 298.877 C 142.739 298.285,142.578 298.152,142.578 298.303 M154.382 298.877 L 153.809 299.512 154.443 298.938 C 154.792 298.623,155.078 298.337,155.078 298.303 C 155.078 298.152,154.917 298.285,154.382 298.877 M260.211 301.316 C 260.724 301.356,261.515 301.356,261.969 301.315 C 262.422 301.274,262.002 301.241,261.035 301.241 C 260.068 301.242,259.697 301.275,260.211 301.316 M166.982 307.568 L 166.309 308.301 167.041 307.628 C 167.723 307.001,167.863 306.836,167.714 306.836 C 167.681 306.836,167.352 307.166,166.982 307.568 M146.633 313.810 C 146.876 313.857,147.228 313.855,147.414 313.806 C 147.601 313.757,147.402 313.719,146.973 313.721 C 146.543 313.723,146.390 313.763,146.633 313.810 M150.344 313.810 C 150.587 313.857,150.939 313.855,151.125 313.806 C 151.312 313.757,151.113 313.719,150.684 313.721 C 150.254 313.723,150.101 313.763,150.344 313.810 M258.838 314.007 C 259.133 314.052,259.617 314.052,259.912 314.007 C 260.208 313.962,259.966 313.926,259.375 313.926 C 258.784 313.926,258.542 313.962,258.838 314.007 " stroke="none" fill="#79bcdd" fill-rule="evenodd"></path><path id="path4" d="M196.243 39.982 C 196.485 40.029,196.837 40.027,197.024 39.978 C 197.210 39.929,197.012 39.891,196.582 39.893 C 196.152 39.895,196.000 39.935,196.243 39.982 M203.078 39.982 C 203.321 40.029,203.673 40.027,203.860 39.978 C 204.046 39.929,203.848 39.891,203.418 39.893 C 202.988 39.895,202.835 39.935,203.078 39.982 M89.148 84.424 L 88.574 85.059 89.209 84.485 C 89.558 84.169,89.844 83.884,89.844 83.850 C 89.844 83.699,89.683 83.832,89.148 84.424 M216.797 91.895 C 217.161 92.271,217.503 92.578,217.557 92.578 C 217.611 92.578,217.357 92.271,216.992 91.895 C 216.628 91.519,216.286 91.211,216.232 91.211 C 216.178 91.211,216.432 91.519,216.797 91.895 M223.483 108.008 C 223.483 108.384,223.523 108.538,223.572 108.350 C 223.621 108.162,223.621 107.854,223.572 107.666 C 223.523 107.478,223.483 107.632,223.483 108.008 M223.483 162.109 C 223.483 162.485,223.523 162.639,223.572 162.451 C 223.621 162.263,223.621 161.956,223.572 161.768 C 223.523 161.580,223.483 161.733,223.483 162.109 M216.690 178.369 L 215.918 179.199 216.748 178.427 C 217.520 177.709,217.668 177.539,217.520 177.539 C 217.488 177.539,217.115 177.913,216.690 178.369 M39.897 196.484 C 39.897 196.968,39.935 197.166,39.982 196.924 C 40.028 196.682,40.028 196.287,39.982 196.045 C 39.935 195.803,39.897 196.001,39.897 196.484 M360.006 196.484 C 360.006 196.860,360.046 197.014,360.096 196.826 C 360.145 196.638,360.145 196.331,360.096 196.143 C 360.046 195.955,360.006 196.108,360.006 196.484 M128.906 201.465 C 128.432 201.948,128.088 202.344,128.141 202.344 C 128.195 202.344,128.627 201.948,129.102 201.465 C 129.576 200.981,129.920 200.586,129.866 200.586 C 129.813 200.586,129.381 200.981,128.906 201.465 M270.996 201.563 C 271.416 201.992,271.803 202.344,271.857 202.344 C 271.910 202.344,271.611 201.992,271.191 201.563 C 270.772 201.133,270.385 200.781,270.331 200.781 C 270.277 200.781,270.577 201.133,270.996 201.563 M39.897 203.516 C 39.897 203.999,39.935 204.197,39.982 203.955 C 40.028 203.713,40.028 203.318,39.982 203.076 C 39.935 202.834,39.897 203.032,39.897 203.516 M360.006 203.516 C 360.006 203.892,360.046 204.045,360.096 203.857 C 360.145 203.669,360.145 203.362,360.096 203.174 C 360.046 202.986,360.006 203.140,360.006 203.516 M184.375 233.887 C 184.739 234.263,185.082 234.570,185.135 234.570 C 185.189 234.570,184.935 234.263,184.570 233.887 C 184.206 233.511,183.864 233.203,183.810 233.203 C 183.756 233.203,184.011 233.511,184.375 233.887 M272.158 268.945 C 272.158 272.759,272.185 274.319,272.216 272.412 C 272.248 270.505,272.248 267.385,272.216 265.479 C 272.185 263.572,272.158 265.132,272.158 268.945 M218.935 290.967 L 218.262 291.699 218.994 291.026 C 219.676 290.400,219.816 290.234,219.667 290.234 C 219.635 290.234,219.305 290.564,218.935 290.967 M272.158 303.906 C 272.158 307.720,272.185 309.280,272.216 307.373 C 272.248 305.466,272.248 302.346,272.216 300.439 C 272.185 298.533,272.158 300.093,272.158 303.906 M239.746 306.445 C 240.166 306.875,240.553 307.227,240.607 307.227 C 240.660 307.227,240.361 306.875,239.941 306.445 C 239.522 306.016,239.135 305.664,239.081 305.664 C 239.027 305.664,239.327 306.016,239.746 306.445 M196.240 360.099 C 196.482 360.145,196.877 360.145,197.119 360.099 C 197.361 360.052,197.163 360.014,196.680 360.014 C 196.196 360.014,195.999 360.052,196.240 360.099 M202.881 360.099 C 203.123 360.145,203.518 360.145,203.760 360.099 C 204.001 360.052,203.804 360.014,203.320 360.014 C 202.837 360.014,202.639 360.052,202.881 360.099 " stroke="none" fill="#3097ce" fill-rule="evenodd"></path></g></svg>